<svg width="58" height="58" viewBox="0 0 58 58" fill="none" xmlns="http://www.w3.org/2000/svg">
  <path d="M14.9687 35.3897C14.9687 38.1931 12.6898 40.4816 9.88643 40.4816C8.53781 40.4778 7.24563 39.9399 6.2927 38.9856C5.33976 38.0313 4.80367 36.7383 4.80176 35.3897C4.80431 34.0415 5.34068 32.7492 6.29355 31.7954C7.24642 30.8416 8.53823 30.3041 9.88643 30.3002H14.9687V35.3897ZM17.5328 35.3897C17.5328 32.5864 19.8141 30.3002 22.6174 30.3002C23.9652 30.3047 25.2564 30.8426 26.2087 31.7963C27.1611 32.75 27.6971 34.0419 27.6997 35.3897V48.1352C27.6971 49.483 27.1611 50.775 26.2087 51.7287C25.2564 52.6824 23.9652 53.2202 22.6174 53.2247C21.2688 53.2222 19.9763 52.685 19.0231 51.7309C18.07 50.7769 17.534 49.4838 17.5328 48.1352V35.3897ZM22.6174 14.9568C19.8141 14.9568 17.5328 12.6658 17.5328 9.86489C17.5328 7.06397 19.8141 4.77539 22.6174 4.77539C23.9652 4.77986 25.2564 5.31774 26.2087 6.27144C27.1611 7.22515 27.6971 8.51711 27.6997 9.86489V14.9568H22.6174ZM22.6174 17.5185C23.9656 17.5229 25.2572 18.0612 26.2096 19.0154C27.162 19.9696 27.6978 21.2622 27.6997 22.6104C27.6971 23.9582 27.1611 25.2501 26.2087 26.2038C25.2564 27.1575 23.9652 27.6954 22.6174 27.6999H9.88884C8.54065 27.6961 7.24883 27.1585 6.29596 26.2047C5.34309 25.2509 4.80672 23.9586 4.80417 22.6104C4.80609 21.2618 5.34217 19.9688 6.29511 19.0145C7.24805 18.0602 8.54023 17.5223 9.88884 17.5185H22.6174ZM43.031 22.6104C43.031 19.8071 45.3099 17.5185 48.1133 17.5185C49.4619 17.5223 50.754 18.0602 51.707 19.0145C52.6599 19.9688 53.196 21.2618 53.1979 22.6104C53.1954 23.9586 52.659 25.2509 51.7061 26.2047C50.7533 27.1585 49.4615 27.6961 48.1133 27.6999H43.031V22.6104ZM40.4669 22.6104C40.4669 25.4137 38.1856 27.6999 35.3823 27.6999C34.0345 27.6954 32.7433 27.1575 31.7909 26.2038C30.8386 25.2501 30.3026 23.9582 30.3 22.6104V9.86489C30.3026 8.51711 30.8386 7.22515 31.7909 6.27144C32.7433 5.31774 34.0345 4.77986 35.3823 4.77539C38.1856 4.77539 40.4669 7.06156 40.4669 9.86489V22.6104ZM35.3823 43.0433C38.1856 43.0433 40.4669 45.3343 40.4669 48.1352C40.4669 50.9361 38.1856 53.2247 35.3823 53.2247C34.0345 53.2202 32.7433 52.6824 31.7909 51.7287C30.8386 50.775 30.3026 49.483 30.3 48.1352V43.0433H35.3823ZM35.3823 40.4816C34.0341 40.4772 32.7425 39.9389 31.7901 38.9847C30.8377 38.0305 30.3019 36.7379 30.3 35.3897C30.3026 34.0419 30.8386 32.75 31.7909 31.7963C32.7433 30.8426 34.0345 30.3047 35.3823 30.3002H48.1133C49.4615 30.3041 50.7533 30.8416 51.7061 31.7954C52.659 32.7492 53.1954 34.0415 53.1979 35.3897C53.196 36.7383 52.6599 38.0313 51.707 38.9856C50.754 39.9399 49.4619 40.4778 48.1133 40.4816H35.3823Z" fill="white"/>
</svg>