<svg fill="none" height="18" viewBox="0 0 20 18" width="20" xmlns="http://www.w3.org/2000/svg"><path d="m9.16676 1.65832c.05757-.18254.17182-.34197.32618-.45514.15435-.11317.34076-.17419.53216-.17419s.3778.06102.5322.17419c.1543.11317.2686.2726.3261.45514l1.55 4.76666h5c.1983-.00749.3935.05012.5559.16404.1624.11391.2831.27787.3436.46681.0604.18895.0574.39249-.0087.57953-.0661.18705-.1917.3473-.3574.45629l-4.0584 2.94165 1.55 4.775c.0613.1819.0629.3786.0044.5615-.0584.1828-.1737.3421-.3292.4548-.1554.1126-.3428.1726-.5347.1711-.1919-.0014-.3784-.0641-.5321-.179l-4.0667-2.975-4.05834 2.95c-.15374.1149-.34019.1776-.53213.179-.19193.0015-.37929-.0585-.53472-.1711-.15543-.1127-.27079-.272-.32922-.4548-.05844-.1829-.05689-.3796.00441-.5615l1.55-4.775-4.05834-2.94165c-.16576-.10899-.29129-.26924-.35739-.45629-.06611-.18704-.06917-.39058-.00871-.57953.06046-.18894.18112-.3529.34354-.46681.16241-.11392.35766-.17153.5559-.16404h5z" style="fill-rule:evenodd;clip-rule:evenodd;stroke:#c3d4e9;stroke-width:1.5;stroke-linecap:round;stroke-linejoin:round"/></svg>