<svg width="51" height="50" viewBox="0 0 51 50" fill="none" xmlns="http://www.w3.org/2000/svg">
  <path d="M34.4447 33.6812C36.1746 33.5051 37.4869 32.0391 37.4272 30.2795C37.3677 28.5203 35.8763 27.1128 34.0867 27.1128H33.9675C32.1181 27.1714 30.6867 28.6962 30.7464 30.5142C30.8061 31.3939 31.1639 32.1562 31.7008 32.6841C29.6727 36.6134 26.5708 39.487 21.9181 41.8916C18.7566 43.5336 15.476 44.1201 12.1953 43.7097C9.51092 43.3578 7.42316 42.185 6.11066 40.2494C4.20196 37.3758 4.02307 34.2675 5.63366 31.1594C6.76708 28.9308 8.55639 27.2886 9.68981 26.4675C9.45124 25.7051 9.09325 24.415 8.91436 23.4767C0.265011 29.6345 1.15985 37.9623 3.78449 41.8916C5.75286 44.8239 9.7495 46.642 14.1636 46.642C15.3566 46.642 16.5495 46.5245 17.7427 46.2316C25.378 44.7653 31.1641 40.3081 34.4447 33.6812ZM44.9433 26.4091C40.4099 21.1895 33.7289 18.3159 26.0936 18.3159H25.1394C24.6025 17.2603 23.4691 16.5564 22.2164 16.5564H22.097C20.248 16.6152 18.8166 18.1398 18.8761 19.958C18.9358 21.7173 20.4269 23.1248 22.2164 23.1248H22.3356C23.648 23.0662 24.7814 22.2452 25.2586 21.1308H26.3322C30.8658 21.1308 35.1605 22.4209 39.038 24.9428C42.0203 26.8781 44.1678 29.4 45.3608 32.4495C46.3749 34.9127 46.3152 37.3172 45.2414 39.3698C43.5713 42.478 40.7678 44.1787 37.0694 44.1787C34.6833 44.1787 32.4167 43.475 31.2236 42.9472C30.5675 43.5336 29.3744 44.4719 28.5392 45.0586C31.1044 46.2314 33.7289 46.8766 36.2342 46.8766C41.9606 46.8766 46.196 43.7681 47.8066 40.66C49.5363 37.2584 49.4169 31.3939 44.9433 26.4091ZM14.6408 34.678C14.7005 36.4373 16.1917 37.8447 17.9813 37.8447H18.1006C19.9497 37.7862 21.3813 36.2614 21.3216 34.4434C21.262 32.6839 19.7706 31.2766 17.9813 31.2766H17.862C17.7427 31.2766 17.5636 31.2766 17.4445 31.335C14.9988 27.3472 13.9847 23.0075 14.3427 18.3158C14.5811 14.797 15.7742 11.7473 17.862 9.22546C19.5917 7.05554 22.9322 5.99993 25.1991 5.94143C31.5219 5.82406 34.206 13.5653 34.385 16.6736C35.1605 16.8495 36.4728 17.2601 37.3677 17.5534C36.6517 8.05284 30.6867 3.12653 24.9605 3.12653C19.5917 3.12653 14.6408 6.93854 12.6722 12.5685C9.92841 20.0752 11.7179 27.2886 15.0583 32.9773C14.7602 33.3878 14.5811 34.0328 14.6408 34.678Z" fill="#778295"/>
</svg>