<svg width="51" height="50" viewBox="0 0 51 50" fill="none" xmlns="http://www.w3.org/2000/svg">
<g id="sass" clip-path="url(#clip0_3718_287)">
<path id="Vector" d="M42.5922 0H7.59222C3.45009 0 0.0922241 3.35786 0.0922241 7.5V42.5C0.0922241 46.6421 3.45009 50 7.59222 50H42.5922C46.7344 50 50.0922 46.6421 50.0922 42.5V7.5C50.0922 3.35786 46.7344 0 42.5922 0Z" fill="#CC6699"/>
<path id="Vector_2" d="M25.2875 8.59369C15.9125 11.8163 9.85785 18.3593 10.4438 22.2656C11.0297 26.1718 16.8891 29.2968 19.5258 31.3476C16.1079 33.1054 11.811 35.7421 11.9086 39.1601C12.1039 43.8476 17.1821 42.3827 19.3305 41.0156C21.4789 39.6484 23.6274 35.8398 22.2602 31.8359C25.2875 31.0546 27.9243 32.0312 28.7055 32.6171C31.7329 34.7656 30.1704 37.207 29.0961 37.5976C28.0219 37.9882 28.7055 38.1835 29.3891 37.9882C30.0727 37.7929 31.5375 36.8163 31.5375 35.1562C31.5375 30.957 27.0454 29.0038 21.4789 30.4687C18.2563 27.0507 13.8618 25.4882 14.0571 21.7773C14.1547 20.4101 14.643 16.8945 23.3344 12.4999C32.0258 8.1054 38.1782 9.86322 37.3969 13.8671C36.225 19.9218 25.6782 24.0234 21.9672 20.5077C21.7719 20.1171 21.0883 19.8242 21.4789 20.8984C23.4321 25.7812 39.2524 23.5351 39.936 13.1835C40.1313 7.71478 32.2211 6.24994 25.2875 8.59369ZM16.8891 39.8437C14.4477 40.6249 14.5454 39.0624 14.643 38.4765C14.936 36.8163 16.3032 34.7656 20.4047 32.7148C21.5766 36.4257 18.9399 39.2577 16.8891 39.8437Z" fill="white"/>
</g>
<defs>
<clipPath id="clip0_3718_287">
<rect width="50" height="50" fill="white" transform="translate(0.0922241)"/>
</clipPath>
</defs>
</svg>
